<svg viewBox="0 0 81 34" fill="none" xmlns="http://www.w3.org/2000/svg">
<path fill-rule="evenodd" clip-rule="evenodd" d="M20.3299 4.20766C17.8771 5.74221 15.9034 7.93848 14.6343 10.5457C14.5359 10.7692 14.4997 11.102 14.6084 11.0656C28.9459 6.38619 27.3252 28.6758 13.7955 25.7746C13.4693 29.3413 13.0188 30.9739 11.9832 33.194C11.9107 33.3552 11.7088 33.4904 11.5793 33.4488C11.5096 33.4281 11.4502 33.3819 11.4128 33.3193C11.3754 33.2567 11.3628 33.1823 11.3774 33.1108C11.8123 30.7243 12.2059 28.3378 10.3729 25.603C9.03184 23.622 3.90058 24.3447 2.15047 22.3378C-2.68565 16.7537 2.52327 7.65483 10.0208 11.6843C9.23895 9.01706 8.56065 4.85758 10.114 0.937273C10.1451 0.84623 10.1925 0.761652 10.2538 0.687705C10.4299 0.495329 10.8493 0.687705 11.0926 0.786492C11.6674 0.968469 12.0402 1.35842 12.6097 1.5456C12.9618 1.92515 12.3353 2.2839 12.4389 2.91822C12.9049 2.3047 13.2052 1.5144 13.635 0.838486C14.5264 1.10113 15.3082 1.6488 15.8614 2.39829C15.4317 3.43816 14.8673 4.37924 14.4893 5.4867C15.3178 4.52482 17.1559 2.78304 18.9164 2.06033C19.5947 2.3515 20.3506 3.9217 20.3299 4.20766Z" fill="white"/>
<path d="M67.835 25.9507C67.9489 25.6491 68.0162 25.3788 68.1353 25.0564C68.2078 24.8432 68.2648 24.6249 68.3269 24.4117C68.446 23.9957 68.5547 23.5798 68.6894 23.169C68.824 22.7583 69.3935 20.8865 69.4505 20.6526C69.5075 20.4186 69.5851 20.1326 69.6162 20.0546C69.8129 19.4983 69.8233 19.3423 69.9993 18.7028C70.0925 18.3752 70.2945 17.6109 70.3152 17.5174C70.3618 17.3146 70.5793 16.5711 70.7242 16.1915C70.8071 15.9732 70.8796 15.7756 70.9676 15.5624C71.0359 15.3842 71.1154 15.2105 71.2058 15.0425C71.3197 14.8345 71.3249 14.7981 71.6977 14.8033C71.8793 14.7925 72.0616 14.8012 72.2414 14.8293C72.3397 14.9021 72.3501 15.1309 72.3863 15.318C72.4536 15.656 72.4847 15.9939 72.5468 16.3319C72.609 16.6699 72.5986 16.8518 72.64 17.273C72.64 17.507 72.6918 17.7929 72.7125 17.9905C72.7332 18.1881 72.7125 18.2921 72.7125 18.4168C72.7232 18.59 72.7232 18.7636 72.7125 18.9368C72.7125 19.1136 72.754 19.3163 72.7591 19.4983C72.7954 20.1638 72.8109 20.4446 72.8731 20.9125C72.9041 21.1569 72.9093 21.4065 72.9248 21.656C72.9507 22.0668 72.9248 22.3372 72.9766 22.7479C73.0284 23.1586 72.9766 23.4498 73.0336 23.897C73.1 24.5047 73.1329 25.1157 73.1319 25.7271C73.1319 26.455 73.2148 27.001 73.2355 27.7289C73.2355 28.124 73.2717 28.5244 73.308 28.9195C73.308 29.1067 73.308 29.2939 73.365 29.7774C73.396 30.1258 73.4115 30.2506 73.4115 30.3701C73.4115 30.4897 73.1527 30.4273 72.8938 30.4273H72.2258H72.1378C72.0446 30.3909 72.0498 30.2869 72.0342 30.1154C72.0032 29.5954 71.9928 29.2835 71.9721 28.7583C71.9514 28.2332 71.9203 27.4741 71.91 26.9802C71.8996 26.4862 71.8582 26.2627 71.8427 25.6959C71.8427 25.5243 71.8116 25.046 71.8012 24.6561C71.8012 23.767 71.7598 23.8034 71.7495 23.3146C71.7495 22.9091 71.6718 22.7427 71.6459 21.916C71.6459 21.4845 71.5838 21.1049 71.5579 20.6838C71.5216 20.0234 71.5009 19.9455 71.4854 19.6439V19.2227C71.4854 18.9732 71.4854 18.9264 71.4595 18.7028C71.469 18.6147 71.469 18.5258 71.4595 18.4376C71.4595 18.3233 71.4595 18.3025 71.4129 18.2921C71.3663 18.2817 71.3456 18.4844 71.3249 18.5676C71.1799 19.1863 71.1178 19.3787 70.9055 20.1274C70.7916 20.5538 70.688 20.8189 70.5482 21.3233C70.4084 21.8276 70.3307 22.0512 70.1806 22.5035C70.1236 22.6751 69.901 23.4186 69.8492 23.5902C69.7042 24.0633 69.6887 24.1881 69.5333 24.6613L69.435 24.994C69.3728 25.1812 69.1191 26.1015 68.8706 26.8502C68.7722 27.1621 68.679 27.4377 68.5599 27.7497C68.4926 27.9212 68.2492 28.0044 68.0421 28.0356C67.8356 28.0799 67.6221 28.0799 67.4156 28.0356C67.3299 28.005 67.2532 27.9532 67.1926 27.8851C67.132 27.8169 67.0894 27.7346 67.0687 27.6457C66.9962 27.3805 66.8823 27.1777 66.8098 26.9126C66.7166 26.559 66.6234 26.481 66.4215 25.8155C66.3852 25.7011 66.2299 25.2072 66.1781 25.0512C66.1263 24.8952 66.0331 24.6353 65.9917 24.5313C65.9088 24.3389 65.6914 23.6786 65.4118 22.9039C65.303 22.5347 65.1581 22.1188 65.0131 21.76C64.8681 21.4013 64.7801 21.1621 64.661 20.8657L64.4798 20.3666C64.371 20.0546 64.2726 19.8467 64.1484 19.5191C64.0914 19.3683 63.8688 18.7808 63.7963 18.6404C63.7963 18.838 63.7549 19.2851 63.7497 19.4255C63.7134 19.8831 63.6979 20.3354 63.6617 20.7929C63.6617 20.8553 63.6617 20.9437 63.6617 21.0061C63.6617 21.3597 63.5943 21.6872 63.5788 22.1344C63.5788 22.4879 63.5322 22.9091 63.5115 23.2626C63.4908 23.6162 63.5115 23.8294 63.4856 24.1309C63.4856 24.7029 63.3924 25.2696 63.3924 25.6907C63.3924 26.6578 63.3147 27.0426 63.2681 27.8693C63.2215 28.6959 63.206 29.1015 63.1439 30.0114C63.1554 30.1428 63.1284 30.2747 63.0662 30.3909C63.0092 30.4845 62.7504 30.4533 62.6313 30.4533C62.3756 30.4667 62.1192 30.458 61.8649 30.4273C61.7821 30.3701 61.8649 30.2765 61.8649 30.0478C61.8649 29.6058 61.9581 28.9611 61.9789 28.566C62.0099 27.9992 62.0669 27.4325 62.098 26.9542C62.129 26.4758 62.1601 26.2731 62.1704 25.8571C62.1704 25.7583 62.1704 25.4932 62.1704 25.3944C62.1704 25.15 62.2067 24.8744 62.2222 24.6405C62.2222 24.2661 62.2585 24.1205 62.2792 23.5434C62.2792 23.2678 62.3154 23.0235 62.3206 22.7271C62.3776 22.046 62.3879 21.5313 62.4138 20.9073C62.4138 20.6214 62.4604 20.3042 62.4811 20.0234C62.5122 19.6335 62.5122 19.3007 62.5381 18.916C62.5691 18.396 62.5847 18.1361 62.6261 17.403C62.6623 16.9922 62.7038 16.6231 62.7348 16.3631C62.7918 15.8796 62.8332 15.6976 62.8643 15.3804C62.8953 15.0633 62.9575 14.9749 63.0921 14.8969C63.2253 14.8314 63.3746 14.8061 63.5219 14.8241C63.609 14.8187 63.6964 14.8275 63.7808 14.8501C63.993 14.9229 64.0552 15.292 64.1328 15.474C64.2105 15.656 64.2002 15.7184 64.2934 15.9939C64.34 16.1239 64.3866 16.3059 64.459 16.5139C64.5315 16.7219 64.5989 16.909 64.6662 17.0858C64.7335 17.2626 64.8111 17.6057 64.8992 17.8449C64.9872 18.0841 65.0079 18.1725 65.1011 18.4064C65.1943 18.6404 65.3962 19.2175 65.4118 19.2695C65.4998 19.4983 65.6085 19.7895 65.7017 19.9974C66.0538 20.9229 66.3852 21.8068 66.4215 21.89C66.5147 22.124 66.5561 22.3216 66.6441 22.5555C66.7321 22.7895 66.8357 23.0755 66.9392 23.3822C67.1205 23.8606 67.2447 24.2817 67.457 24.8952C67.5502 25.1344 67.7314 25.6751 67.835 25.9507Z" fill="white"/>
<path d="M40.2963 15.7982C40.2963 15.8866 40.2963 15.9802 40.2238 15.9958L39.7837 16.0218C39.2707 16.0162 38.7613 16.1079 38.2821 16.2922C38.0297 16.3807 37.7896 16.5013 37.5676 16.6509C37.3605 16.8087 37.1937 17.0136 37.0809 17.2488C36.9379 17.4992 36.8315 17.7688 36.765 18.0495C36.6456 18.51 36.5642 18.9795 36.5217 19.4534C36.5217 19.7549 36.4285 20.2333 36.4077 20.5348C36.3715 21.1068 36.3301 21.8243 36.3249 22.4014C36.3197 22.9785 36.3249 23.5401 36.3249 24.112C36.3249 24.6059 36.3663 25.0115 36.4026 25.5054C36.4026 25.7654 36.4854 26.3789 36.5372 26.8312C36.5714 27.2834 36.7058 27.7222 36.9307 28.1155C37.0578 28.3124 37.2151 28.4879 37.3967 28.6354C37.5817 28.8243 37.8144 28.9591 38.0698 29.0254C38.5063 29.1144 38.9548 29.1268 39.3954 29.0618C39.6209 29.0322 39.844 28.9871 40.0633 28.9266C40.2445 28.8746 40.2963 29.1397 40.3688 29.3113C40.4413 29.4829 40.4206 29.4985 40.4568 29.6077C40.4979 29.7084 40.5291 29.8129 40.55 29.9197C40.55 29.982 40.6018 30.0236 40.55 30.0548C40.1997 30.2244 39.8233 30.3334 39.4368 30.3772C38.9522 30.4418 38.4612 30.4418 37.9766 30.3772C37.7716 30.3502 37.569 30.3067 37.3708 30.2472C36.768 30.0232 36.255 29.6068 35.9107 29.0618C35.6725 28.669 35.4977 28.2408 35.3929 27.7931C35.2765 27.186 35.209 26.5705 35.191 25.9525C35.191 25.7654 35.191 25.4326 35.1599 25.2558C35.1599 24.9023 35.1236 24.7359 35.1133 24.4603C35.1133 24.3096 35.1133 24.1848 35.1133 24.034C35.1133 23.8832 35.1133 23.6856 35.1133 23.5141C35.1133 23.4257 35.1133 22.7082 35.1133 22.3338C35.1133 22.0478 35.1392 21.7515 35.1133 21.4551C35.1133 21.2731 35.1133 21.1016 35.1133 20.9352C35.1133 20.6336 35.1702 20.1449 35.2013 19.8433C35.2324 19.5418 35.2531 19.1882 35.2945 18.8034C35.3359 18.4187 35.4343 17.8624 35.4964 17.5868C35.5532 17.3669 35.6259 17.1514 35.7139 16.9421C35.7968 16.7549 35.9055 16.5729 36.0039 16.391C36.1177 16.2186 36.2422 16.0536 36.3767 15.897C36.5585 15.6705 36.7839 15.4831 37.0394 15.3459C37.925 14.9188 38.9087 14.7392 39.8873 14.8259C40.0789 14.8259 40.141 14.9559 40.1979 15.1535C40.2549 15.3511 40.2601 15.6162 40.2963 15.7982Z" fill="white"/>
<path d="M47.7311 29.6071C47.7311 29.4668 47.643 28.848 47.6171 28.6869C47.5291 28.1669 47.4929 27.8238 47.4204 27.2934C47.3634 26.8827 47.2858 26.4875 47.2392 26.0716C47.1718 25.4685 47.0786 24.8341 47.0165 24.231C46.9544 23.6279 46.8974 23.0612 46.8249 22.4736C46.7369 21.7613 46.6437 21.0542 46.5401 20.3419C46.478 19.8948 46.4262 19.5048 46.3589 19.0577C46.2916 18.6105 46.2295 18.1582 46.1725 17.737C46.1156 17.3159 45.9706 16.6972 45.9084 16.2552C45.8463 15.8133 45.8101 15.3765 45.7324 15.075C45.7324 15.0074 45.6392 14.867 45.5771 14.8566C45.2133 14.8077 44.8459 14.7921 44.4794 14.8098C44.1739 14.8098 44.0858 14.9034 44.0289 15.153C43.9719 15.4025 43.946 15.6729 43.8839 16.0472C43.8477 16.25 43.7959 16.5672 43.77 16.7544C43.7182 17.1703 43.682 17.3991 43.6095 17.7942C43.6095 17.9554 43.5525 18.1478 43.5215 18.3142C43.4904 18.4805 43.4386 18.7561 43.4127 18.8757C43.3506 19.1513 43.2004 19.9624 43.1486 20.3315C43.0969 20.7007 42.9674 21.4234 42.9571 21.491C42.926 21.7613 42.9001 22.0109 42.8639 22.2969C42.846 22.581 42.8027 22.8629 42.7344 23.1392C42.6412 23.4199 42.5325 24.2726 42.5014 24.4078C42.4445 24.6834 42.403 24.9901 42.3461 25.2605C42.2891 25.5309 42.1545 26.3004 42.1234 26.4823C42.0665 26.8411 41.8335 28.1097 41.7713 28.4529C41.6678 28.9728 41.5798 29.4304 41.5124 29.7943C41.4587 29.9896 41.4257 30.19 41.4141 30.3922C41.4814 30.4702 41.8283 30.4442 42.0924 30.4442C42.5014 30.4442 42.6101 30.4442 42.6826 30.2311C42.781 29.8151 42.8742 29.3264 42.9622 28.7337C43.014 28.3749 43.0865 28.0421 43.1383 27.6938C43.1796 27.4143 43.2402 27.1381 43.3195 26.8671L44.148 26.9139C44.9195 26.9555 46.0897 26.9555 46.0897 26.9555C46.1166 27.0345 46.134 27.1166 46.1414 27.1998C46.1414 27.3974 46.188 27.595 46.2088 27.7926C46.2295 27.9901 46.2554 28.2397 46.2864 28.4633C46.3745 29.1704 46.4262 29.6591 46.5143 30.2311C46.5143 30.4182 46.5712 30.4546 46.7058 30.4598C46.8405 30.465 47.3065 30.4598 47.3997 30.4598C47.7103 30.4598 47.876 30.5118 47.8294 30.2259C47.7984 30.0855 47.7621 29.7891 47.7311 29.6071ZM45.9861 25.7024C45.4683 25.7024 44.8522 25.6712 44.3033 25.64C44.0301 25.641 43.757 25.6271 43.4852 25.5984C43.4955 25.3584 43.5284 25.1199 43.5836 24.8861C43.7079 24.0438 43.8321 23.3679 43.946 22.5984C44.0703 21.7405 44.1998 20.8774 44.3396 19.9988C44.412 19.5672 44.4897 19.0317 44.5674 18.5637C44.5674 18.5169 44.7486 17.8306 44.8315 17.4251C44.8344 17.3971 44.8445 17.3704 44.8608 17.3476C44.8772 17.3248 44.8992 17.3067 44.9247 17.2951C44.9557 17.2951 44.9971 17.2951 45.0334 17.4771C45.0955 17.8566 45.1577 18.4597 45.1991 18.8445C45.256 19.406 45.4217 20.7943 45.4631 21.0334C45.5046 21.2726 45.6185 22.2865 45.6392 22.4944C45.9758 25.6504 45.9602 25.2501 45.9861 25.7024Z" fill="white"/>
<path d="M34.3455 29.6071C34.3455 29.4668 34.2523 28.848 34.2264 28.6869C34.1384 28.1669 34.1022 27.8238 34.0297 27.2934C33.9727 26.8827 33.895 26.4875 33.8484 26.0716C33.7811 25.4685 33.6879 24.8341 33.6258 24.231C33.5637 23.6279 33.5067 23.0612 33.4342 22.4736C33.3462 21.7613 33.253 21.0542 33.1546 20.3419C33.0873 19.8948 33.0355 19.5048 32.9682 19.0577C32.9009 18.6105 32.8439 18.1582 32.7818 17.737C32.7197 17.3159 32.585 16.6972 32.5177 16.2552C32.4504 15.8133 32.4193 15.3765 32.3469 15.075C32.3469 15.0074 32.2485 14.867 32.1863 14.8566C31.8226 14.8077 31.4552 14.7921 31.0886 14.8098C30.7883 14.8098 30.6951 14.9034 30.6382 15.153C30.5812 15.4025 30.5605 15.6729 30.4932 16.0472C30.4569 16.25 30.4052 16.5672 30.3793 16.7544C30.3275 17.1703 30.2912 17.3991 30.2188 17.7942C30.2188 17.9554 30.1618 18.1478 30.1307 18.3142C30.0997 18.4805 30.0479 18.7561 30.022 18.8757C29.9599 19.1513 29.8097 19.9624 29.7579 20.3315C29.7061 20.7007 29.5767 21.4234 29.5715 21.491C29.5353 21.7613 29.5094 22.0109 29.4731 22.2969C29.4493 22.5762 29.4008 22.8528 29.3282 23.1236C29.235 23.4043 29.1262 24.257 29.0952 24.3922C29.0382 24.6678 28.9968 24.9745 28.9398 25.2449C28.8829 25.5153 28.7482 26.2848 28.7172 26.4667C28.6602 26.8255 28.4272 28.0941 28.3651 28.4373C28.2615 28.9572 28.1735 29.4148 28.1062 29.7787C28.0524 29.974 28.0195 30.1744 28.0078 30.3767C28.0751 30.4546 28.422 30.4286 28.6861 30.4286C29.0952 30.4286 29.2298 30.4286 29.2764 30.2155C29.3748 29.7995 29.468 29.3108 29.556 28.7181C29.6078 28.3593 29.6803 28.0265 29.7372 27.6782C29.7756 27.3987 29.8345 27.1224 29.9133 26.8515L30.7417 26.8983C31.5184 26.9399 32.6834 26.9399 32.6834 26.9399C32.7104 27.019 32.7278 27.101 32.7352 27.1843C32.7611 27.3818 32.7818 27.5794 32.8025 27.777C32.8232 27.9746 32.8491 28.2241 32.8802 28.4477C32.9734 29.1548 33.02 29.6435 33.108 30.2155C33.1339 30.4026 33.165 30.439 33.2996 30.4442C33.4342 30.4494 33.9002 30.4442 33.9934 30.4442C34.3041 30.4442 34.4698 30.4962 34.4232 30.2103C34.4076 30.0855 34.3714 29.7891 34.3455 29.6071ZM32.5954 25.7024C32.0776 25.7024 31.4614 25.6712 30.9126 25.64C30.6411 25.6411 30.3697 25.6272 30.0997 25.5985C30.1033 25.3582 30.1346 25.1192 30.1929 24.8861C30.3171 24.0438 30.4414 23.3679 30.5553 22.5984C30.6796 21.7405 30.809 20.8774 30.9488 19.9988C31.0213 19.5672 31.099 19.0317 31.1818 18.5637C31.1818 18.5169 31.3579 17.8306 31.4407 17.4251C31.4436 17.3971 31.4538 17.3704 31.4701 17.3476C31.4865 17.3248 31.5085 17.3067 31.5339 17.2951C31.5702 17.2951 31.6116 17.2951 31.6427 17.4771C31.7048 17.8566 31.7669 18.4597 31.8084 18.8445C31.8653 19.406 32.031 20.7943 32.0724 21.0334C32.1139 21.2726 32.2278 22.2865 32.2537 22.4944C32.585 25.6504 32.5695 25.2501 32.5954 25.7024Z" fill="white"/>
<path d="M77.6289 20.9555C77.7998 20.4356 77.9137 20.16 78.0173 19.8324C78.1622 19.4061 78.2088 19.2449 78.3538 18.7926C78.5247 18.2726 78.6127 18.0699 78.6904 17.7527C78.7939 17.3679 78.9804 16.848 79.0477 16.5984C79.1512 16.2137 79.3169 15.6833 79.3635 15.5586C79.4215 15.3076 79.5102 15.0649 79.6276 14.8359C79.6276 14.8047 79.6794 14.7891 79.8658 14.7891H80.7512C80.922 14.7891 80.8288 14.9086 80.7512 15.309C80.6735 15.7093 80.5285 16.0889 80.3059 16.8688C80.0832 17.6487 79.9849 17.9087 79.7881 18.6054C79.5292 19.4009 79.436 19.9364 79.1875 20.7423C78.9389 21.5482 78.7525 22.1565 78.5558 22.7649C78.5479 22.8895 78.5479 23.0146 78.5558 23.1392C78.5558 23.7111 78.5558 23.7111 78.5558 24.2831C78.5558 24.5638 78.5558 24.7042 78.5558 24.9798C78.5558 25.0578 78.5558 25.3385 78.5558 25.4165C78.5394 25.6988 78.5394 25.9818 78.5558 26.264C78.5868 26.6904 78.5558 26.9399 78.6127 27.6678C78.6697 28.3958 78.7111 29.3524 78.7163 30.0699C78.7163 30.3403 78.7784 30.4599 78.592 30.4495H77.8671C77.7318 30.4659 77.5945 30.4553 77.4632 30.4183C77.4229 30.2481 77.4055 30.0732 77.4115 29.8984C77.37 29.1757 77.3597 28.4581 77.3234 27.751C77.3234 27.3663 77.3234 27.3507 77.2872 26.758C77.2872 26.4252 77.2613 26.0353 77.2458 25.7181C77.2458 25.0838 77.1785 24.7406 77.1629 24.1063C77.1629 23.7579 77.1629 23.6436 77.1163 23.3316C77.1163 23.3316 76.9144 22.8117 76.7694 22.5257C76.495 21.9798 76.4484 21.8498 76.2516 21.4182C76.0549 20.9867 75.7649 20.5031 75.5474 20.0456L75.418 19.7388C75.3092 19.4945 75.2109 19.2189 75.1125 18.9953C75.0452 18.8342 74.9727 18.7042 74.8795 18.5274C74.8225 18.4286 74.8173 18.3558 74.7759 18.2726C74.7345 18.1894 74.6258 18.0231 74.574 17.8879C74.2944 17.2016 74.2633 17.0352 74.0562 16.5464C73.8585 16.1325 73.6856 15.7072 73.5384 15.2726C73.4763 15.0854 73.3572 14.8827 73.5954 14.8463C73.8556 14.8255 74.117 14.8255 74.3772 14.8463C74.662 14.8463 74.7863 14.8047 74.8588 14.9762C75.0141 15.3506 75.1694 15.6626 75.3403 16.0473C75.3973 16.1773 75.5785 16.5672 75.6251 16.6764C75.6637 16.778 75.7086 16.877 75.7597 16.9728C75.7927 17.0416 75.8204 17.1129 75.8426 17.186C75.885 17.3852 75.9659 17.5743 76.0807 17.7423C76.1556 17.8727 76.2213 18.0083 76.2775 18.1478C76.4794 18.6106 76.6658 19.0733 76.8833 19.5257C77.0895 20.0234 77.339 20.5019 77.6289 20.9555Z" fill="white"/>
<path d="M55.0185 24.6993C55.0185 24.3977 55.0858 23.2955 55.0858 23.1915C55.0858 22.8795 55.0236 22.6039 55.0029 22.266C54.9667 21.6265 54.9563 20.9558 54.8787 20.4358C54.7964 19.9558 54.677 19.4829 54.5214 19.0216C54.4748 18.8864 54.4385 18.7304 54.3971 18.5901C54.3022 18.1965 54.1523 17.8184 53.9518 17.467C53.7329 17.1037 53.4889 16.7563 53.2218 16.4271C52.8848 15.9906 52.4549 15.6353 51.9635 15.3873C51.7296 15.2507 51.4855 15.1325 51.2335 15.0337C51.0369 14.944 50.8299 14.8794 50.6173 14.8413C50.446 14.815 50.2728 14.8028 50.0995 14.8049C49.7474 14.8049 49.5144 14.8049 49.3228 15.0129C49.1313 15.2209 49.1261 15.6888 49.1313 16.1152C49.1313 16.4011 49.1313 16.6975 49.1313 16.8899C49.1313 17.2694 49.1313 18.6004 49.1313 18.772C49.1002 19.9159 49.1313 20.649 49.1313 21.2365C49.1313 21.4445 49.1313 22.0684 49.1313 22.1724C49.1623 22.8067 49.1313 23.0667 49.1313 23.7322C49.1313 24.0858 49.1313 24.5953 49.1313 24.9489C49.1313 25.1516 49.1313 26.4775 49.1313 26.5087C49.1313 27.0286 49.1313 27.4653 49.1313 28.0061C49.1313 28.266 49.1313 28.8952 49.1313 29.1083C49.1125 29.4165 49.1125 29.7256 49.1313 30.0338C49.14 30.1517 49.1938 30.2616 49.2814 30.3406C49.4642 30.4311 49.6695 30.4655 49.8717 30.4394C50.1637 30.4521 50.4563 30.4416 50.7467 30.4082C51.0803 30.3501 51.4021 30.2377 51.6995 30.0754C51.8652 29.9974 52.2173 29.779 52.4088 29.6595C52.6986 29.4813 52.9708 29.2759 53.2218 29.0459C53.5745 28.7117 53.8655 28.3174 54.0813 27.8813C54.362 27.3725 54.5695 26.8264 54.6974 26.2591C54.8333 25.7456 54.9404 25.2248 55.0185 24.6993ZM53.8379 22.8171C53.8379 23.1707 53.8379 23.4254 53.8379 24.013C53.8167 24.5848 53.7456 25.1537 53.6256 25.7132C53.5602 26.1254 53.4418 26.5273 53.2735 26.909C53.1129 27.2377 52.9072 27.5422 52.6625 27.8137C52.3727 28.2004 52.0014 28.5182 51.5752 28.7444C51.235 28.9357 50.8757 29.0908 50.5034 29.2071C50.3947 29.2435 50.3791 29.2071 50.3791 29.0823C50.3791 28.6976 50.4102 28.1153 50.3791 27.8085C50.3481 27.5017 50.3791 27.0702 50.3791 26.7686C50.3791 26.3631 50.3791 25.9367 50.3791 25.5364C50.3791 25.0424 50.3791 24.6525 50.3791 24.1637C50.3791 23.7842 50.3791 23.2851 50.3791 22.9055C50.3791 22.4324 50.3791 22.2088 50.3791 21.7357C50.3791 21.5537 50.3791 20.9298 50.348 20.753C50.348 20.1291 50.348 20.0407 50.348 19.5207C50.348 19.0944 50.348 18.8656 50.348 18.3821C50.348 18.2105 50.3895 17.7062 50.3895 17.5346C50.3895 17.1394 50.4309 16.084 50.4309 16.084C50.92 16.1568 51.3879 16.3341 51.803 16.6039C52.2288 16.8746 52.5838 17.2436 52.8386 17.6802C52.9167 17.7878 52.9843 17.9027 53.0405 18.0233C53.1843 18.2965 53.3039 18.5818 53.3978 18.876C53.5169 19.2452 53.579 19.6091 53.6619 19.9835C53.7165 20.2219 53.758 20.4632 53.7861 20.7062C53.8431 21.1637 53.8431 21.4237 53.8845 21.9592C53.8069 22.0008 53.8379 22.448 53.8379 22.8171Z" fill="white"/>
<path d="M57.6728 29.0598C57.7829 29.0861 57.8965 29.0948 58.0093 29.0858C58.5024 29.118 58.9971 29.118 59.4902 29.0858C59.8225 29.0519 60.1573 29.0519 60.4895 29.0858C60.6604 29.2418 60.5776 29.2418 60.5879 29.6369C60.5879 29.7045 60.5879 30.0893 60.5879 30.1568C60.5879 30.2244 60.5879 30.422 60.474 30.4168C60.3601 30.4116 59.9562 30.3804 59.7905 30.3908C59.34 30.3908 58.6566 30.3908 58.3718 30.3908C58.2527 30.3908 57.766 30.3908 57.6469 30.3908C57.2583 30.4113 56.8688 30.4009 56.4819 30.3596C56.3887 30.24 56.4819 30.1932 56.4094 30.0477C56.3708 29.5527 56.3708 29.0556 56.4094 28.5606C56.4094 28.4047 56.4094 26.1845 56.3731 25.623C56.3731 25.571 56.3731 25.5398 56.3731 25.519V25.4618C56.3731 25.415 56.3731 25.3994 56.3731 25.3267C56.4146 24.8483 56.3731 23.7045 56.3731 23.5849C56.4094 23.2937 56.4301 21.8691 56.4353 21.5987C56.4404 21.3284 56.4353 19.6126 56.4353 19.3838C56.4033 18.8644 56.4033 18.3434 56.4353 17.824C56.4353 17.6784 56.399 16.493 56.3835 16.2642C56.3565 15.9737 56.3565 15.6812 56.3835 15.3907C56.3835 15.2139 56.3421 14.9384 56.4819 14.8708C56.6217 14.8032 56.7874 14.7512 57.1653 14.7772C57.2016 14.7772 58.1232 14.7772 58.1543 14.7772C58.5944 14.7512 59.3711 14.7772 59.5886 14.7772C59.9044 14.7772 60.4274 14.7772 60.7381 14.7772C60.9038 14.7772 60.8572 15.1307 60.8416 15.3283C60.8416 15.4011 60.8416 15.9938 60.7898 16.0302C60.6496 16.0569 60.5055 16.0569 60.3653 16.0302C60.1323 16.0302 59.6041 16.0302 59.4281 16.0042C58.9413 15.9806 58.4535 15.9893 57.9679 16.0302C57.766 16.0302 57.7246 16.0302 57.7453 16.259C57.766 16.4878 57.7453 16.5762 57.7453 16.7789C57.7453 16.8933 57.7453 17.1845 57.7763 17.3353C57.7763 17.6056 57.7763 18.1204 57.7763 18.4219C57.7763 18.7235 57.8281 19.7582 57.8488 20.1221C57.8488 20.3405 57.8488 20.7304 57.8488 20.9488C57.8488 20.9956 57.8488 21.0476 57.8488 21.0944C57.8488 21.2764 57.8488 21.2764 58.0559 21.2816C58.263 21.2868 59.5161 21.3284 59.8009 21.2816C59.874 21.2675 59.9491 21.268 60.022 21.2832C60.0948 21.2983 60.164 21.3278 60.2255 21.3699C60.2928 21.4635 60.2255 21.6819 60.2721 22.1187C60.2721 22.2018 60.2721 22.5502 60.2099 22.5866C59.9409 22.601 59.6712 22.601 59.4022 22.5866C59.1226 22.5866 58.786 22.5866 58.5064 22.5606C58.3143 22.5883 58.1205 22.6022 57.9265 22.6022C57.8178 22.6022 57.766 22.6334 57.7763 22.7426C57.7763 23.0441 57.7453 23.5069 57.7763 23.8136C57.7763 23.9436 57.7763 26.8449 57.7763 27.1048C57.7763 27.5884 57.7763 28.0667 57.7763 28.5502C57.7047 28.7103 57.6693 28.8843 57.6728 29.0598Z" fill="white"/>
<path d="M29.5745 9.56282C29.5745 9.47443 29.5745 8.82971 29.5745 8.74132C29.5745 8.65293 29.6004 7.76385 29.5745 7.63906C29.5668 7.49358 29.5668 7.34779 29.5745 7.20232C29.5745 7.00474 29.5331 5.95967 29.5745 5.88168C29.5745 5.60612 29.5383 4.81062 29.5435 4.68583C29.5487 4.56105 29.5435 4.42586 29.5435 4.29068C29.5435 4.1555 29.5435 3.99432 29.5953 3.92153C29.6312 3.88137 29.678 3.85249 29.7299 3.83834C29.9153 3.78773 30.1077 3.76841 30.2994 3.78115C30.5472 3.77974 30.7907 3.84626 31.0036 3.97352C31.2397 4.12092 31.4341 4.32683 31.568 4.57145C31.7286 4.90257 31.8017 5.26962 31.7803 5.63731C31.7612 5.94046 31.6745 6.23542 31.5266 6.5004C31.4464 6.69507 31.3285 6.8718 31.1797 7.02034C31.1408 7.06577 31.0933 7.1029 31.0399 7.12953L31.1693 7.21271C31.3307 7.33337 31.4738 7.47699 31.5939 7.63906C31.788 7.89727 31.9225 8.19566 31.9874 8.51255C32.0675 8.83046 32.1093 9.1569 32.1117 9.48483C32.1143 9.835 32.0288 10.1802 31.8632 10.4883C31.7749 10.6297 31.6668 10.7575 31.5421 10.8679C31.4516 10.9493 31.3526 11.0207 31.247 11.081C31.139 11.1439 31.0244 11.1945 30.9053 11.2318C30.7497 11.2814 30.5869 11.3043 30.4237 11.2994H29.792C29.7558 11.2994 29.5694 11.2994 29.559 11.1434C29.559 11.107 29.559 10.7327 29.559 10.6859C29.559 10.6391 29.5745 9.62521 29.5745 9.56282ZM30.1648 10.6495C30.2011 10.6495 30.5169 10.6495 30.5532 10.6495C30.7759 10.6095 30.9805 10.5004 31.1383 10.3375C31.3048 10.1472 31.3903 9.89894 31.3764 9.64601C31.3764 9.52122 31.3764 9.33405 31.3764 9.20926C31.37 8.92607 31.3139 8.64623 31.2107 8.38257C31.1407 8.1864 31.0274 8.00866 30.8794 7.86263L30.6722 7.64426C30.6439 7.61585 30.6105 7.59294 30.5739 7.57667C30.5282 7.5562 30.4789 7.54558 30.4289 7.54547H30.1286C30.1286 7.63386 30.1286 7.73265 30.1286 7.81064C30.1286 8.1174 30.0975 8.39817 30.1286 8.70493C30.1596 9.01169 30.1286 9.22486 30.1286 9.50563C30.1545 9.87998 30.1286 10.2439 30.1648 10.6495ZM30.1648 6.95795C30.2453 6.94387 30.3236 6.9194 30.3978 6.88516C30.6604 6.71021 30.8572 6.45218 30.957 6.15205C31.0417 5.96618 31.0842 5.76371 31.0813 5.55932C31.0916 5.31516 31.0474 5.07178 30.9519 4.84701C30.8388 4.67801 30.6758 4.54889 30.4858 4.47786C30.346 4.41027 30.1338 4.47786 30.1286 4.62864C30.1234 4.77942 30.1286 5.05499 30.1286 5.21097C30.1286 5.36695 30.1286 5.61652 30.1286 5.78809C30.1286 6.04286 30.1286 6.37042 30.1286 6.71358C30.1596 6.78637 30.1441 6.84876 30.1493 6.95795H30.1648Z" fill="white"/>
<path d="M33.4136 10.64C33.4668 10.6476 33.5208 10.6476 33.5741 10.64C33.8119 10.658 34.0508 10.658 34.2886 10.64C34.4486 10.6217 34.6101 10.6217 34.7701 10.64C34.853 10.7127 34.8116 10.7127 34.8167 10.9051C34.8167 10.9363 34.8167 11.1235 34.8167 11.1599C34.8167 11.1963 34.8167 11.2899 34.7598 11.2847C34.7028 11.2795 34.5113 11.2847 34.4336 11.2847C34.2161 11.2847 33.8847 11.2847 33.7501 11.2847C33.6155 11.2847 33.455 11.2847 33.398 11.2847C33.2118 11.2975 33.025 11.2975 32.8388 11.2847C32.7922 11.2275 32.8388 11.2015 32.8026 11.1339C32.7846 10.8951 32.7846 10.6552 32.8026 10.4164C32.8026 10.3436 32.8026 9.27253 32.8026 9.00216C32.8061 8.985 32.8061 8.96732 32.8026 8.95017C32.8026 8.95017 32.8026 8.91897 32.8026 8.88777C32.8026 8.6538 32.8026 8.10267 32.8026 8.04548C32.8026 7.9051 32.8285 7.21878 32.8336 7.0888C32.8388 6.95882 32.8336 6.13212 32.8336 6.02293C32.8197 5.77703 32.8197 5.53053 32.8336 5.28463C32.8336 5.21184 32.8336 4.64511 32.8336 4.53592C32.8203 4.39586 32.8203 4.25484 32.8336 4.11477C32.8336 4.02638 32.8336 3.8964 32.8802 3.86001C32.9268 3.82361 33.0252 3.79761 33.2064 3.81321H33.6828C33.8951 3.81321 34.2679 3.81321 34.3766 3.81321C34.4854 3.81321 34.7805 3.81321 34.9307 3.81321C35.0808 3.81321 34.9876 3.98479 34.9824 4.07838C34.9773 4.17197 34.9824 4.40074 34.9824 4.41634C34.9824 4.43193 34.8375 4.41634 34.7753 4.41634C34.7132 4.41634 34.4077 4.41634 34.3249 4.41634C34.0905 4.3985 33.8551 4.3985 33.6207 4.41634C33.5223 4.41634 33.5068 4.41634 33.5119 4.52552C33.5171 4.63471 33.5119 4.6763 33.5119 4.77509C33.5119 4.87388 33.5119 4.97267 33.5119 5.04546C33.5119 5.11825 33.5119 5.42501 33.5119 5.56539C33.5119 5.70577 33.5119 6.21011 33.5482 6.38169C33.5844 6.55327 33.5482 6.67805 33.5482 6.78204C33.4984 6.79294 33.4521 6.81618 33.4136 6.84963C33.4136 6.93802 33.4136 6.93802 33.5171 6.94322C33.6207 6.94842 34.2213 6.94322 34.3559 6.94322C34.4277 6.92936 34.5021 6.94429 34.563 6.98481C34.5941 7.03161 34.563 7.13559 34.563 7.34357C34.563 7.38516 34.563 7.55154 34.532 7.57234C34.5009 7.59314 34.242 7.57234 34.1436 7.57234C34.0005 7.58012 33.857 7.58012 33.7139 7.57234C33.6208 7.58048 33.5273 7.58048 33.4343 7.57234C33.3825 7.57234 33.3566 7.57234 33.3618 7.64513C33.3618 7.79071 33.3618 8.00908 33.3618 8.16506C33.3618 8.22746 33.3618 9.62608 33.3618 9.72487C33.3618 9.95364 33.3618 10.1876 33.3618 10.4164C33.3689 10.4929 33.3863 10.5681 33.4136 10.64Z" fill="white"/>
<path d="M36.1186 10.64C36.1718 10.6476 36.2259 10.6476 36.2791 10.64C36.517 10.658 36.7558 10.658 36.9937 10.64C37.1537 10.6217 37.3152 10.6217 37.4752 10.64C37.5581 10.7127 37.5166 10.7127 37.5218 10.9051C37.5218 10.9363 37.5218 11.1235 37.5218 11.1599C37.5218 11.1963 37.5218 11.2899 37.4649 11.2847C37.4079 11.2795 37.2163 11.2847 37.1387 11.2847C36.9212 11.2847 36.5898 11.2847 36.45 11.2847C36.393 11.2847 36.16 11.2847 36.1031 11.2847C35.9169 11.2975 35.7301 11.2975 35.5439 11.2847C35.4973 11.2275 35.5439 11.2015 35.5076 11.1339C35.487 10.8952 35.487 10.6551 35.5076 10.4164C35.5076 10.3436 35.5076 9.27253 35.5076 9.00216C35.5057 8.98488 35.5057 8.96745 35.5076 8.95017C35.5076 8.95017 35.5076 8.91897 35.5076 8.88777C35.5076 8.6538 35.5076 8.10267 35.5076 8.04548C35.5076 7.9051 35.5335 7.21878 35.5387 7.0888C35.5439 6.95882 35.5387 6.13212 35.5387 6.02293C35.5221 5.77711 35.5221 5.53045 35.5387 5.28463C35.5387 5.21184 35.5387 4.64511 35.5387 4.53592C35.5251 4.39587 35.5251 4.25483 35.5387 4.11477C35.5387 4.02638 35.5387 3.8964 35.5853 3.86001C35.6319 3.82361 35.7355 3.79761 35.9167 3.81321H36.393C36.6053 3.81321 36.9781 3.81321 37.0817 3.81321C37.1853 3.81321 37.4908 3.81321 37.6409 3.81321C37.7911 3.81321 37.6979 3.98479 37.6875 4.07838C37.6772 4.17197 37.6875 4.40074 37.6875 4.41634C37.6875 4.43193 37.5425 4.41634 37.4804 4.41634C37.4183 4.41634 37.1128 4.41634 37.0247 4.41634C36.7921 4.39863 36.5584 4.39863 36.3257 4.41634C36.2273 4.41634 36.2066 4.41634 36.217 4.52552C36.2274 4.63471 36.217 4.6763 36.217 4.77509C36.217 4.87388 36.217 4.97267 36.217 5.04546C36.217 5.11825 36.217 5.42501 36.217 5.56539C36.217 5.70577 36.217 6.21011 36.2532 6.38169C36.2895 6.55327 36.2532 6.67805 36.2532 6.78204C36.2532 6.78204 36.2532 6.82883 36.2532 6.84963C36.2532 6.87043 36.2532 6.93802 36.3516 6.94322C36.45 6.94842 37.061 6.94322 37.1956 6.94322C37.2303 6.9359 37.2661 6.93581 37.3009 6.94296C37.3356 6.95012 37.3685 6.96436 37.3975 6.98481C37.4338 7.03161 37.3975 7.13559 37.4234 7.34357C37.4234 7.38516 37.4234 7.55154 37.3924 7.57234C37.3613 7.59314 37.1024 7.57234 37.004 7.57234C36.8592 7.58012 36.714 7.58012 36.5691 7.57234C36.4778 7.58047 36.386 7.58047 36.2947 7.57234C36.2377 7.57234 36.217 7.57234 36.217 7.64513C36.217 7.79071 36.217 8.00908 36.217 8.16506C36.217 8.22746 36.217 9.62608 36.217 9.72487C36.217 9.95364 36.217 10.1876 36.217 10.4164C36.1684 10.4828 36.1348 10.5591 36.1186 10.64Z" fill="white"/>
<path d="M45.7651 3.7708H45.9152C46.1328 3.78054 46.3431 3.85272 46.521 3.97877C46.6913 4.08377 46.8391 4.22161 46.956 4.38432C47.0247 4.48505 47.0853 4.5911 47.1372 4.70148C47.1983 4.83176 47.2518 4.96543 47.2977 5.10183C47.2977 5.10183 47.3392 5.24221 47.3443 5.24741V5.3202C47.3909 5.51258 47.4582 5.98572 47.479 6.18329C47.5204 6.58364 47.5256 6.9216 47.5307 7.12438V7.28036C47.5307 7.38954 47.5307 7.97187 47.5307 8.04986V8.10185C47.5307 8.24744 47.5307 8.62179 47.5307 8.89215C47.5307 8.99094 47.4531 9.49008 47.4427 9.53167V9.56807C47.3873 9.84471 47.2986 10.1136 47.1786 10.3688C47.0346 10.6564 46.8209 10.9031 46.5573 11.0863C46.3283 11.2278 46.065 11.3034 45.7962 11.3047C45.653 11.3059 45.5102 11.2885 45.3716 11.2527C45.1641 11.1991 44.9713 11.0996 44.8072 10.9615C44.6721 10.8493 44.5581 10.7137 44.4706 10.5611C44.3402 10.314 44.2344 10.0545 44.1548 9.78644V9.69805C44.1548 9.63566 44.1237 9.57847 44.1133 9.53167C44.0771 9.3549 44.015 8.88176 44.0046 8.74137C43.9942 8.60099 44.0046 7.89908 44.0046 7.78989C44.0046 7.68071 44.0046 7.50913 44.0046 7.38954C44.0046 7.26996 44.0046 7.17117 44.0046 7.02039C44.0046 6.86961 44.0046 6.56285 44.0046 6.35487C44.0046 6.31328 44.0046 6.25089 44.0046 6.1729C44.0046 5.98052 44.046 5.74135 44.0667 5.65296C44.1133 5.3774 44.1651 5.13303 44.2014 5.00304C44.2757 4.7225 44.416 4.46396 44.6104 4.24914C44.8022 4.00644 45.0739 3.84049 45.3767 3.7812C45.4637 3.76341 45.5521 3.75298 45.6408 3.75L45.7651 3.7708ZM46.1948 10.5299C46.3845 10.4316 46.5318 10.267 46.6091 10.0672C46.7048 9.86994 46.7777 9.66236 46.8265 9.44848V9.42249C46.8265 9.3497 46.8939 8.94935 46.899 8.90255C46.899 8.65818 46.899 8.27863 46.899 8.13305V8.07586C46.899 7.97187 46.899 7.46753 46.899 7.39994C46.899 7.33235 46.899 7.28556 46.899 7.18157C46.8999 6.8863 46.8843 6.59121 46.8524 6.29768C46.8281 6.04105 46.79 5.78592 46.7385 5.53338V5.48658C46.6702 5.23522 46.5692 4.99397 46.4382 4.76907C46.3729 4.6807 46.2922 4.60495 46.2 4.5455C46.1082 4.48539 46.0035 4.44797 45.8945 4.43631C45.8427 4.43631 45.791 4.43631 45.734 4.43631C45.6703 4.43089 45.6062 4.43089 45.5424 4.43631C45.3606 4.46196 45.1956 4.55692 45.0816 4.70148C44.9647 4.8355 44.8782 4.99337 44.8279 5.16422C44.8279 5.22661 44.7709 5.39819 44.7088 5.75695C44.7088 5.84534 44.6674 6.09491 44.6518 6.27688C44.6518 6.34967 44.6518 6.41727 44.6518 6.46406C44.6417 6.66324 44.6417 6.8628 44.6518 7.06198C44.6518 7.22316 44.6518 7.34275 44.6518 7.45194C44.6518 7.56112 44.6518 7.7119 44.6518 7.82109C44.6518 7.93027 44.6518 8.58539 44.6518 8.69978C44.6518 8.81416 44.714 9.25091 44.745 9.40689C44.7519 9.45781 44.7623 9.50819 44.7761 9.55767C44.7761 9.60446 44.7761 9.65126 44.8124 9.68765C44.8742 9.89433 44.9557 10.0946 45.0557 10.2856C45.104 10.3617 45.1614 10.4315 45.2266 10.4936C45.3198 10.5765 45.4318 10.6354 45.5528 10.6651C45.6474 10.6758 45.7429 10.6758 45.8376 10.6651C45.9641 10.6528 46.0862 10.6119 46.1948 10.5455V10.5299Z" fill="white"/>
<path d="M49.8613 3.78254H50.0114C50.231 3.7904 50.4434 3.86271 50.6224 3.99052C50.7897 4.09537 50.9355 4.23124 51.0522 4.39087C51.1217 4.49289 51.1823 4.60075 51.2334 4.71323C51.2989 4.84153 51.3526 4.97553 51.3939 5.11357C51.3939 5.11357 51.4405 5.24876 51.4405 5.25916C51.4419 5.2834 51.4419 5.3077 51.4405 5.33195C51.4871 5.51912 51.5544 5.99746 51.5752 6.19504C51.6166 6.59019 51.6218 6.93334 51.6269 7.13612C51.6233 7.18631 51.6233 7.23671 51.6269 7.2869C51.6269 7.40129 51.6269 7.97841 51.6269 8.0564V8.1136C51.6269 8.25918 51.6269 8.63353 51.5959 8.9039C51.5959 8.99748 51.5182 9.49662 51.5078 9.54341V9.57981C51.4516 9.85625 51.363 10.125 51.2438 10.3805C51.0999 10.6682 50.8862 10.915 50.6224 11.098C50.3917 11.2356 50.1295 11.3108 49.8613 11.3164C49.7184 11.3125 49.5763 11.2951 49.4367 11.2644C49.2299 11.2105 49.0385 11.109 48.8775 10.968C48.7436 10.8566 48.6298 10.7229 48.5409 10.5729C48.41 10.3266 48.3059 10.0669 48.2303 9.79818V9.70979C48.2112 9.65362 48.1956 9.59632 48.1836 9.53822C48.1526 9.36144 48.0853 8.8935 48.0749 8.74791C48.0646 8.60233 48.0749 7.90562 48.0749 7.80163C48.0749 7.69765 48.0749 7.52087 48.0749 7.40129C48.0749 7.2817 48.0749 7.18291 48.0749 7.03213C48.0727 6.80988 48.0831 6.58768 48.106 6.36662C48.106 6.32502 48.106 6.25743 48.106 6.18464C48.106 5.99226 48.1526 5.74789 48.1733 5.63351C48.2199 5.36314 48.2665 5.11357 48.3079 4.98879C48.378 4.72436 48.5093 4.48029 48.6911 4.27648C48.8863 4.03273 49.1617 3.86683 49.4678 3.80854C49.5548 3.79075 49.6431 3.78032 49.7318 3.77734L49.8613 3.78254ZM50.2962 10.5417C50.4836 10.442 50.6289 10.2776 50.7053 10.0789C50.8017 9.87837 50.8747 9.66726 50.9227 9.44983V9.41863C50.9227 9.34584 50.9901 8.95069 50.9952 8.8987C50.9952 8.65433 50.9952 8.26958 50.9952 8.12919V8.0668C50.9952 7.96801 50.9952 7.46368 50.9952 7.39609C50.9952 7.32849 50.9952 7.2817 50.9952 7.17251C50.9952 6.98014 50.9952 6.65258 50.9486 6.28863C50.9229 6.03358 50.8832 5.78015 50.8295 5.52952C50.8295 5.52952 50.8295 5.49313 50.8295 5.47753C50.7599 5.23076 50.6608 4.99334 50.5344 4.77042C50.4691 4.68205 50.3884 4.6063 50.2962 4.54685C50.2033 4.4899 50.099 4.45439 49.9907 4.44286H49.6438C49.4624 4.47382 49.2975 4.56765 49.1778 4.70803C49.0614 4.84356 48.9765 5.0034 48.9293 5.17597C48.8761 5.36911 48.8346 5.56531 48.805 5.76349C48.805 5.85708 48.7636 6.10665 48.748 6.28343C48.748 6.36142 48.748 6.42901 48.748 6.4706C48.748 6.65258 48.748 6.90735 48.748 7.07373C48.748 7.24011 48.748 7.35449 48.748 7.46368C48.748 7.57286 48.748 7.72364 48.748 7.83283C48.748 7.94202 48.748 8.59713 48.748 8.71152C48.748 8.8259 48.8102 9.26265 48.8412 9.41863C48.8412 9.41863 48.8412 9.53302 48.8723 9.56421C48.9034 9.59541 48.8723 9.663 48.9086 9.69419C48.9722 9.90268 49.0554 10.1046 49.1571 10.2973C49.2021 10.3743 49.2579 10.4443 49.3228 10.5053C49.4173 10.5863 49.5288 10.645 49.649 10.6769C49.7436 10.6874 49.8391 10.6874 49.9338 10.6769C50.0615 10.6627 50.185 10.622 50.2962 10.5573V10.5417Z" fill="white"/>
<path d="M41.9934 7.49386C41.9365 7.49386 41.9209 7.49386 41.9209 7.53026C41.9209 7.66024 41.9209 7.77983 41.9209 7.90981C41.9209 8.16978 41.9209 8.33616 41.9209 8.59613C41.9209 8.85609 41.9209 8.96008 41.9209 9.33443C41.9209 9.45402 41.952 10.1143 41.9209 10.2651C41.8899 10.4159 41.9209 10.5251 41.9209 10.6395C41.9209 10.7539 41.9209 10.9046 41.9209 10.9774C41.9209 11.0502 41.952 11.1438 41.9209 11.253C41.8899 11.3622 41.8743 11.253 41.8277 11.2998C41.7811 11.3466 41.3773 11.2998 41.3514 11.2998C41.3255 11.2998 41.3514 10.967 41.3514 10.8838C41.3514 10.8006 41.3514 10.5511 41.3514 10.2495C41.3514 10.2027 41.3514 10.0883 41.3514 9.88036C41.3514 9.76598 41.3514 9.54761 41.3514 9.36043C41.3514 9.17325 41.3514 9.12126 41.3514 8.84049C41.3514 8.7781 41.3514 8.32056 41.3514 8.23737C41.3514 8.0294 41.3514 7.82142 41.3514 7.61345C41.3591 7.50267 41.3591 7.39147 41.3514 7.28069V6.66717C41.3435 6.5321 41.3435 6.39669 41.3514 6.26162C41.3589 6.13001 41.3589 5.99808 41.3514 5.86647C41.3592 5.7852 41.3592 5.70337 41.3514 5.6221C41.3514 5.37253 41.3203 4.8318 41.3203 4.8162C41.3514 4.64982 41.3203 4.47824 41.3617 4.29627C41.3761 4.17731 41.4242 4.06503 41.5005 3.97282C41.5767 3.88062 41.6777 3.81241 41.7915 3.77633C41.9501 3.74122 42.1144 3.74122 42.273 3.77633C42.4781 3.8192 42.6688 3.91407 42.8271 4.0519C42.9099 4.12989 42.972 4.21828 43.0549 4.29627C43.1396 4.39955 43.2045 4.51765 43.2465 4.64462C43.2775 4.71741 43.2931 4.7902 43.319 4.86819C43.3711 5.03651 43.3973 5.21185 43.3966 5.38813C43.4017 5.60126 43.372 5.81379 43.3086 6.01725C43.2549 6.22838 43.1693 6.43002 43.0549 6.61518L42.9772 6.73476C42.8788 6.84395 42.8737 6.91154 42.7701 7.01033C42.6665 7.10911 42.5319 7.2391 42.5475 7.25989C42.5992 7.51466 42.7287 7.68624 42.7908 7.94621C42.853 8.20617 42.9669 8.49734 43.0393 8.7781C43.1118 9.05887 43.1636 9.16805 43.2568 9.50601C43.3244 9.71617 43.3815 9.92961 43.4277 10.1455C43.495 10.3951 43.5416 10.5511 43.6193 10.7954C43.6669 10.9107 43.6898 11.0347 43.6866 11.1594C43.6866 11.2738 43.5002 11.2478 43.3656 11.2478C43.2851 11.263 43.2026 11.263 43.1222 11.2478C43.0229 11.0558 42.9564 10.8484 42.9254 10.6343C42.9254 10.6343 42.6873 9.68799 42.6044 9.41242C42.5216 9.13686 42.3611 8.55453 42.3041 8.33616C42.2367 8.09357 42.1537 7.85563 42.0556 7.62385C42.0245 7.59265 42.0245 7.56146 41.9934 7.49386ZM41.9209 6.454C41.9134 6.58387 41.9134 6.71407 41.9209 6.84395C41.9209 6.90114 41.9468 6.91674 41.9986 6.89594C42.0868 6.85966 42.1624 6.79819 42.2161 6.71916C42.3492 6.54612 42.467 6.3617 42.5682 6.16803C42.6631 6.00843 42.7264 5.83187 42.7546 5.6481C42.7886 5.47647 42.7886 5.29979 42.7546 5.12816C42.7293 5.00186 42.6763 4.88283 42.5992 4.77981C42.5412 4.70023 42.4714 4.63009 42.3921 4.57183C42.3148 4.51728 42.2225 4.48821 42.1281 4.48864C42.0918 4.48864 41.9624 4.48864 41.9417 4.51984C41.929 4.59382 41.929 4.66943 41.9417 4.74341C41.9417 4.863 41.9417 5.01898 41.9417 5.14376C41.9682 5.48987 41.9682 5.83752 41.9417 6.18363C41.9298 6.28027 41.9229 6.37745 41.9209 6.47479V6.454Z" fill="white"/>
<path d="M39.7216 5.57449C39.7216 5.91245 39.6698 8.6941 39.675 8.6941C39.6802 8.6941 39.675 9.11525 39.675 9.13084C39.675 9.14644 39.675 9.4532 39.675 9.88475V10.7738C39.675 10.7998 39.675 10.9298 39.675 11.1118C39.6778 11.1568 39.6778 11.202 39.675 11.247C39.6802 11.2604 39.6802 11.2752 39.675 11.2886C39.675 11.2886 39.6181 11.2886 39.5456 11.2886H39.3436C39.121 11.2886 39.1003 11.2886 39.1003 11.2886V10.9142C39.1003 10.7374 39.1003 10.4619 39.1003 10.2955C39.1003 10.1291 39.1003 9.85875 39.1003 9.68197C39.1003 9.68197 39.1365 9.19843 39.1417 8.95407C39.1417 8.90727 39.1417 8.85528 39.1417 8.80328C39.1417 8.56411 39.1417 8.33014 39.1417 8.09097C39.1417 7.8518 39.1417 7.72702 39.1417 7.52425C39.1417 7.32147 39.1417 7.15509 39.1417 6.97311C39.1417 6.90552 39.1417 6.83793 39.1417 6.77554C39.1417 6.56756 39.1417 6.3024 39.1417 6.09962C39.1417 6.02163 39.1417 5.94364 39.1417 5.86565C39.1417 5.67328 39.1417 5.4809 39.1417 5.28852C39.1417 5.25213 39.1417 5.09095 39.1417 4.99736C39.1547 4.82429 39.1547 4.65049 39.1417 4.47743C39.0491 4.46256 38.9547 4.46256 38.8621 4.47743C38.7068 4.47743 38.6395 4.47743 38.4116 4.47743C38.2967 4.49538 38.1797 4.49538 38.0647 4.47743C38.056 4.37189 38.056 4.2658 38.0647 4.16027C38.0461 4.05886 38.0461 3.95491 38.0647 3.8535C38.1573 3.83789 38.2518 3.83789 38.3443 3.8535C38.6187 3.8535 38.7534 3.8535 38.9967 3.8535C39.2401 3.8535 39.4627 3.8535 39.7216 3.8535C39.9805 3.8535 40.1669 3.8535 40.3637 3.8535C40.4258 3.8535 40.607 3.8535 40.8504 3.8535C41.0006 3.8535 40.9229 3.9159 40.9436 4.04588C40.9679 4.17996 40.9679 4.31735 40.9436 4.45143C40.8488 4.48443 40.7486 4.49855 40.6485 4.49302C40.4621 4.49302 40.4051 4.49302 40.0996 4.49302H39.8096C39.8096 4.60741 39.8096 4.87258 39.8096 5.12734C39.7113 5.09095 39.7216 5.57449 39.7216 5.57449Z" fill="white"/>
<path d="M53.3271 5.57641C53.3271 5.91437 53.2753 8.69602 53.2805 8.69602C53.2857 8.69602 53.2805 9.11717 53.2805 9.13277C53.2805 9.14837 53.2805 9.45513 53.2805 9.88667V10.7758C53.2805 10.8018 53.2805 10.9317 53.2805 11.1137C53.2832 11.1587 53.2832 11.2039 53.2805 11.2489C53.2857 11.2623 53.2857 11.2771 53.2805 11.2905C53.2805 11.2905 53.2235 11.2905 53.1511 11.2905H52.9491C52.7265 11.2905 52.7058 11.2905 52.7058 11.2905V10.2818C52.7058 10.105 52.7058 9.84508 52.7058 9.6683C52.7058 9.6683 52.742 9.18476 52.7472 8.94039C52.7472 8.8936 52.7472 8.8416 52.7472 8.78961C52.7472 8.55044 52.7472 8.31647 52.7472 8.0773C52.7472 7.83813 52.7472 7.71335 52.7472 7.51057C52.7472 7.3078 52.7472 7.14142 52.7472 6.95944C52.7472 6.89185 52.7472 6.82426 52.7472 6.76187C52.7472 6.55389 52.7472 6.28873 52.7472 6.08595C52.7472 6.00796 52.7472 5.92997 52.7472 5.85198C52.7472 5.6596 52.7472 5.46723 52.7472 5.27485C52.7472 5.23846 52.7472 5.07728 52.7472 4.98369C52.7602 4.81062 52.7602 4.63682 52.7472 4.46375C52.6546 4.44888 52.5602 4.44888 52.4676 4.46375C52.3122 4.46375 52.2449 4.46375 52.0171 4.46375C51.9022 4.4817 51.7851 4.4817 51.6702 4.46375C51.6614 4.35822 51.6614 4.25213 51.6702 4.14659C51.6516 4.04519 51.6516 3.94124 51.6702 3.83983C51.7627 3.82422 51.8572 3.82422 51.9498 3.83983C52.2242 3.83983 52.3588 3.83983 52.6022 3.83983C52.8456 3.83983 53.0682 3.83983 53.3271 3.83983C53.586 3.83983 53.7724 3.83983 53.9691 3.83983C54.0313 3.83983 54.2177 3.83983 54.4559 3.83983C54.606 3.83983 54.5284 3.90222 54.5491 4.03221C54.5733 4.16629 54.5733 4.30367 54.5491 4.43776C54.4543 4.47075 54.3541 4.48488 54.2539 4.47935C54.0675 4.47935 54.0106 4.47935 53.7051 4.47935H53.4151C53.4151 4.59374 53.4151 4.8589 53.4151 5.11367C53.3219 5.09288 53.3271 5.57641 53.3271 5.57641Z" fill="white"/>
</svg>
